<svg version="1.1" viewBox="0.0 0.0 765.5406824146982 273.5275590551181" fill="none" stroke="none" stroke-linecap="square" stroke-miterlimit="10" xmlns:xlink="http://www.w3.org/1999/xlink" xmlns="http://www.w3.org/2000/svg"><clipPath id="p.0"><path d="m0 0l765.5407 0l0 273.52756l-765.5407 0l0 -273.52756z" clip-rule="nonzero"/></clipPath><g clip-path="url(#p.0)"><path fill="#000000" fill-opacity="0.0" d="m0 0l765.5407 0l0 273.52756l-765.5407 0z" fill-rule="evenodd"/><path fill="#000000" fill-opacity="0.0" d="m327.95932 -29.548557l465.66928 0l0 310.2677l-465.66928 0z" fill-rule="evenodd"/><path fill="#ffffff" d="m360.0062 -0.389186q5.4375 0 9.625 2.28125q4.203125 2.28125 6.484375 6.359375q2.28125 4.078125 2.28125 9.437499l0 21.4375q0 7.203125 -4.125 11.921875q-4.109375 4.71875 -11.078125 5.6875q-0.3125 0 -0.3125 0.3125l0 7.609379q0 0.796875 -0.796875 0.796875l-4.078125 0q-0.8125 0 -0.8125 -0.796875l0 -7.609379q0 -0.3125 -0.3125 -0.3125q-6.96875 -0.96875 -11.125 -5.6875q-4.15625 -4.71875 -4.15625 -11.921875l0 -21.4375q0 -5.359374 2.28125 -9.437499q2.28125 -4.078125 6.46875 -6.359375q4.203125 -2.28125 9.65625 -2.28125zm12.71875 17.84375q0 -5.765624 -3.53125 -9.328124q-3.515625 -3.5625 -9.1875 -3.5625q-5.6875 0 -9.21875 3.5625q-3.515625 3.5625 -3.515625 9.328124l0 21.59375q0 5.765625 3.515625 9.328125q3.53125 3.5625 9.21875 3.5625q5.671875 0 9.1875 -3.5625q3.53125 -3.5625 3.53125 -9.328125l0 -21.59375zm41.18933 -0.890625q0 -0.79687405 0.8125 -0.79687405l4.078125 0q0.796875 0 0.796875 0.79687405l0 38.890625q0 0.796875 -0.796875 0.796875l-4.078125 0q-0.8125 0 -0.8125 -0.796875l0 -3.4375q0 -0.171875 -0.15625 -0.25q-0.15625 -0.078125 -0.234375 0.078125q-3.359375 4.96875 -10.640625 4.96875q-3.84375 0 -7.09375 -1.5625q-3.234375 -1.5625 -5.109375 -4.515625q-1.875 -2.96875 -1.875 -7.125l0 -27.046875q0 -0.79687405 0.796875 -0.79687405l4.078125 0q0.796875 0 0.796875 0.79687405l0 25.375q0 4.546875 2.5625 7.234375q2.5625 2.671875 6.953125 2.671875q4.5625 0 7.234375 -2.71875q2.6875 -2.71875 2.6875 -7.1875l0 -25.375zm32.411194 -1.437499q7.1875 0 11.109375 3.687499q3.921875 3.671875 3.921875 9.75l0 26.890625q0 0.796875 -0.796875 0.796875l-4.078125 0q-0.796875 0 -0.796875 -0.796875l0 -3.28125q0 -0.15625 -0.125 -0.234375q-0.125 -0.09375 -0.28125 0.078125q-2.0 2.390625 -5.203125 3.640625q-3.203125 1.234375 -7.109375 1.234375q-5.6875 0 -9.53125 -2.875q-3.828125 -2.890625 -3.828125 -8.8125q0 -6.0 4.359375 -9.46875q4.359375 -3.484375 12.109375 -3.484375l9.28125 0q0.328125 0 0.328125 -0.3125l0 -3.046875q0 -4.078125 -2.28125 -6.4375q-2.28125 -2.359375 -7.078125 -2.359375q-3.84375 0 -6.25 1.484375q-2.390625 1.46875 -2.953125 4.109375q-0.25 0.796875 -0.96875 0.71875l-4.3125 -0.5625q-0.875 -0.15625 -0.71875 -0.640625q0.640625 -4.46875 4.796875 -7.265625q4.15625 -2.812499 10.40625 -2.812499zm-2.25 36.890625q4.71875 0 8.15625 -2.359375q3.453125 -2.359375 3.453125 -6.359375l0 -6.25q0 -0.3125 -0.328125 -0.3125l-8.390625 0q-5.28125 0 -8.484375 2.15625q-3.203125 2.15625 -3.203125 6.0q0 3.515625 2.4375 5.328125q2.4375 1.796875 6.359375 1.796875zm45.92685 -36.8125q6.390625 0 10.1875 3.765624q3.8125 3.765625 3.8125 10.078125l0 26.40625q0 0.796875 -0.796875 0.796875l-4.09375 0q-0.796875 0 -0.796875 -0.796875l0 -25.28125q0 -4.40625 -2.6875 -7.203125q-2.671875 -2.796875 -6.90625 -2.796875q-4.40625 0 -7.125 2.71875q-2.71875 2.71875 -2.71875 7.125l0 25.4375q0 0.796875 -0.796875 0.796875l-4.078125 0q-0.796875 0 -0.796875 -0.796875l0 -38.890625q0 -0.79687405 0.796875 -0.79687405l4.078125 0q0.796875 0 0.796875 0.79687405l0 3.453125q0 0.15625 0.109375 0.234375q0.125 0.078125 0.21875 -0.078125q3.515625 -4.968749 10.796875 -4.968749zm44.47931 4.484374q0 0.796875 -0.796875 0.796875l-9.046875 0q-0.3125 0 -0.3125 0.328125l0 23.59375q0 3.84375 1.71875 5.40625q1.71875 1.5625 5.390625 1.5625l2.0 0q0.796875 0 0.796875 0.796875l0 3.28125q0 0.796875 -0.796875 0.796875q-0.953125 0.078125 -2.953125 0.078125q-5.765625 0 -8.734375 -2.15625q-2.953125 -2.15625 -2.953125 -8.0l0 -25.359375q0 -0.328125 -0.3125 -0.328125l-4.875 0q-0.8125 0 -0.8125 -0.796875l0 -3.125q0 -0.79687405 0.8125 -0.79687405l4.875 0q0.3125 0 0.3125 -0.3125l0 -9.28125q0 -0.796875 0.8125 -0.796875l3.90625 0q0.8125 0 0.8125 0.796875l0 9.28125q0 0.3125 0.3125 0.3125l9.046875 0q0.796875 0 0.796875 0.79687405l0 3.125zm35.432495 -3.125q0 -0.79687405 0.8125 -0.79687405l4.078125 0q0.796875 0 0.796875 0.79687405l0 38.890625q0 0.796875 -0.796875 0.796875l-4.078125 0q-0.8125 0 -0.8125 -0.796875l0 -3.4375q0 -0.171875 -0.15625 -0.25q-0.15625 -0.078125 -0.234375 0.078125q-3.359375 4.96875 -10.640625 4.96875q-3.84375 0 -7.09375 -1.5625q-3.234375 -1.5625 -5.109375 -4.515625q-1.875 -2.96875 -1.875 -7.125l0 -27.046875q0 -0.79687405 0.796875 -0.79687405l4.078125 0q0.796875 0 0.796875 0.79687405l0 25.375q0 4.546875 2.5625 7.234375q2.5625 2.671875 6.953125 2.671875q4.5625 0 7.234375 -2.71875q2.6875 -2.71875 2.6875 -7.1875l0 -25.375zm59.36432 -1.359374q6.0 0 9.46875 3.609374q3.484375 3.59375 3.484375 9.84375l0 26.796875q0 0.796875 -0.796875 0.796875l-4.0 0q-0.796875 0 -0.796875 -0.796875l0 -25.6875q0 -4.390625 -2.515625 -6.984375q-2.515625 -2.609375 -6.609375 -2.609375q-4.234375 0 -6.84375 2.5625q-2.59375 2.5625 -2.59375 6.875l0 25.84375q0 0.796875 -0.796875 0.796875l-4.078125 0q-0.796875 0 -0.796875 -0.796875l0 -25.6875q0 -4.390625 -2.484375 -6.984375q-2.484375 -2.609375 -6.640625 -2.609375q-4.234375 0 -6.765625 2.5625q-2.515625 2.5625 -2.515625 6.875l0 25.84375q0 0.796875 -0.796875 0.796875l-4.078125 0q-0.796875 0 -0.796875 -0.796875l0 -38.890625q0 -0.79687405 0.796875 -0.79687405l4.078125 0q0.796875 0 0.796875 0.79687405l0 3.203125q0 0.171875 0.109375 0.21875q0.125 0.03125 0.296875 -0.140625q1.75 -2.3125 4.515625 -3.46875q2.765625 -1.171874 6.125 -1.171874q4.15625 0 7.109375 1.687499q2.96875 1.671875 4.484375 4.875q0.15625 0.40625 0.40625 0q1.75 -3.28125 4.953125 -4.921875q3.203125 -1.640624 7.28125 -1.640624z" fill-rule="nonzero"/><path fill="#ffffff" d="m361.52182 152.97018q-5.609375 0 -9.84375 -2.203125q-4.234375 -2.203125 -6.59375 -6.234375q-2.359375 -4.046875 -2.359375 -9.328125l0 -22.0q0 -5.1875 2.359375 -9.1875q2.359375 -4.0 6.59375 -6.203125q4.234375 -2.203125 9.84375 -2.203125q5.59375 0 9.828125 2.171875q4.25 2.15625 6.609375 6.078125q2.359375 3.90625 2.359375 9.03125q0 0.40625 -0.25 0.640625q-0.234375 0.234375 -0.546875 0.234375l-4.078125 0.25q-0.796875 0 -0.796875 -0.71875l0 -0.25q0 -5.671875 -3.609375 -9.078125q-3.59375 -3.40625 -9.515625 -3.40625q-5.921875 0 -9.53125 3.453125q-3.59375 3.4375 -3.59375 9.03125l0 22.40625q0 5.59375 3.59375 9.046875q3.609375 3.4375 9.53125 3.4375q5.921875 0 9.515625 -3.40625q3.609375 -3.40625 3.609375 -9.078125l0 -0.15625q0 -0.734375 0.796875 -0.734375l4.078125 0.25q0.796875 0 0.796875 0.71875q0 5.203125 -2.359375 9.171875q-2.359375 3.953125 -6.609375 6.109375q-4.234375 2.15625 -9.828125 2.15625zm45.7612 -0.078125q-5.765625 0 -9.921875 -2.953125q-4.15625 -2.96875 -5.765625 -8.171875q-1.109375 -3.671875 -1.109375 -9.828125q0 -6.171875 1.109375 -9.765625q1.53125 -5.125 5.6875 -8.078125q4.15625 -2.96875 10.078125 -2.96875q5.671875 0 9.796875 2.96875q4.125 2.953125 5.640625 8.0q1.125 3.4375 1.125 9.84375q0 6.46875 -1.125 9.828125q-1.515625 5.203125 -5.640625 8.171875q-4.125 2.953125 -9.875 2.953125zm0 -4.953125q3.84375 0 6.5625 -2.125q2.71875 -2.125 3.671875 -5.71875q0.71875 -2.890625 0.71875 -8.078125q0 -5.28125 -0.640625 -8.078125q-0.953125 -3.609375 -3.71875 -5.71875q-2.75 -2.125 -6.671875 -2.125q-3.921875 0 -6.640625 2.125q-2.71875 2.109375 -3.6875 5.71875q-0.640625 2.796875 -0.640625 8.078125q0 5.28125 0.640625 8.078125q0.875 3.59375 3.640625 5.71875q2.765625 2.125 6.765625 2.125zm69.11557 -36.734375q6.0 0 9.46875 3.609375q3.484375 3.59375 3.484375 9.84375l0 26.796875q0 0.796875 -0.796875 0.796875l-4.0 0q-0.796875 0 -0.796875 -0.796875l0 -25.6875q0 -4.390625 -2.515625 -6.984375q-2.515625 -2.609375 -6.609375 -2.609375q-4.234375 0 -6.84375 2.5625q-2.59375 2.5625 -2.59375 6.875l0 25.84375q0 0.796875 -0.796875 0.796875l-4.078125 0q-0.796875 0 -0.796875 -0.796875l0 -25.6875q0 -4.390625 -2.484375 -6.984375q-2.484375 -2.609375 -6.640625 -2.609375q-4.234375 0 -6.765625 2.5625q-2.515625 2.5625 -2.515625 6.875l0 25.84375q0 0.796875 -0.796875 0.796875l-4.078125 0q-0.796875 0 -0.796875 -0.796875l0 -38.890625q0 -0.796875 0.796875 -0.796875l4.078125 0q0.796875 0 0.796875 0.796875l0 3.203125q0 0.171875 0.109375 0.21875q0.125 0.03125 0.296875 -0.140625q1.75 -2.3125 4.515625 -3.46875q2.765625 -1.171875 6.125 -1.171875q4.15625 0 7.109375 1.6875q2.96875 1.671875 4.484375 4.875q0.15625 0.40625 0.40625 0q1.75 -3.28125 4.953125 -4.921875q3.203125 -1.640625 7.28125 -1.640625zm56.644318 10.640625q1.203125 3.84375 1.203125 10.171875q0 6.390625 -1.046875 9.921875q-1.4375 5.109375 -5.25 8.03125q-3.796875 2.921875 -9.546875 2.921875q-3.125 0 -5.765625 -1.234375q-2.640625 -1.25 -4.390625 -3.5625q-0.171875 -0.15625 -0.296875 -0.109375q-0.109375 0.03125 -0.109375 0.1875l0 18.796875q0 0.796875 -0.796875 0.796875l-4.078125 0q-0.8125 0 -0.8125 -0.796875l0 -54.40625q0 -0.796875 0.8125 -0.796875l4.078125 0q0.796875 0 0.796875 0.796875l0 3.375q0 0.15625 0.109375 0.203125q0.125 0.03125 0.296875 -0.125q1.75 -2.328125 4.34375 -3.609375q2.609375 -1.28125 5.8125 -1.28125q5.59375 0 9.390625 2.890625q3.8125 2.875 5.25 7.828125zm-6.328125 20.25q0.890625 -1.765625 1.328125 -3.953125q0.4375 -2.203125 0.4375 -6.125q0 -3.765625 -0.328125 -5.875q-0.3125 -2.125 -1.109375 -3.8125q-0.96875 -2.875 -3.40625 -4.546875q-2.4375 -1.6875 -5.796875 -1.6875q-3.203125 0 -5.359375 1.6875q-2.15625 1.671875 -3.203125 4.46875q-0.71875 1.59375 -1.046875 3.765625q-0.3125 2.15625 -0.3125 6.0q0 3.828125 0.3125 6.03125q0.328125 2.203125 1.125 3.890625q0.96875 2.71875 3.15625 4.359375q2.203125 1.640625 5.25 1.640625q3.203125 0 5.5625 -1.59375q2.359375 -1.609375 3.390625 -4.25zm43.51935 -29.53125q0 -0.796875 0.8125 -0.796875l4.078125 0q0.796875 0 0.796875 0.796875l0 38.890625q0 0.796875 -0.796875 0.796875l-4.078125 0q-0.8125 0 -0.8125 -0.796875l0 -3.4375q0 -0.171875 -0.15625 -0.25q-0.15625 -0.078125 -0.234375 0.078125q-3.359375 4.96875 -10.640625 4.96875q-3.84375 0 -7.09375 -1.5625q-3.234375 -1.5625 -5.109375 -4.515625q-1.875 -2.96875 -1.875 -7.125l0 -27.046875q0 -0.796875 0.796875 -0.796875l4.078125 0q0.796875 0 0.796875 0.796875l0 25.375q0 4.546875 2.5625 7.234375q2.5625 2.671875 6.953125 2.671875q4.5625 0 7.234375 -2.71875q2.6875 -2.71875 2.6875 -7.1875l0 -25.375zm36.567444 3.125q0 0.796875 -0.796875 0.796875l-9.046875 0q-0.3125 0 -0.3125 0.328125l0 23.59375q0 3.84375 1.71875 5.40625q1.71875 1.5625 5.390625 1.5625l2.0 0q0.796875 0 0.796875 0.796875l0 3.28125q0 0.796875 -0.796875 0.796875q-0.953125 0.078125 -2.953125 0.078125q-5.765625 0 -8.734375 -2.15625q-2.953125 -2.15625 -2.953125 -8.0l0 -25.359375q0 -0.328125 -0.3125 -0.328125l-4.875 0q-0.8125 0 -0.8125 -0.796875l0 -3.125q0 -0.796875 0.8125 -0.796875l4.875 0q0.3125 0 0.3125 -0.3125l0 -9.28125q0 -0.796875 0.8125 -0.796875l3.90625 0q0.8125 0 0.8125 0.796875l0 9.28125q0 0.3125 0.3125 0.3125l9.046875 0q0.796875 0 0.796875 0.796875l0 3.125zm14.79187 -11.28125q-1.921875 0 -3.203125 -1.28125q-1.265625 -1.28125 -1.265625 -3.1875q0 -2.0 1.265625 -3.234375q1.28125 -1.25 3.203125 -1.25q1.921875 0 3.203125 1.25q1.28125 1.234375 1.28125 3.234375q0 1.90625 -1.28125 3.1875q-1.28125 1.28125 -3.203125 1.28125zm-2.234375 47.765625q-0.796875 0 -0.796875 -0.796875l0 -38.890625q0 -0.796875 0.796875 -0.796875l4.078125 0q0.796875 0 0.796875 0.796875l0 38.890625q0 0.796875 -0.796875 0.796875l-4.078125 0zm35.60309 -40.96875q6.390625 0 10.1875 3.765625q3.8125 3.765625 3.8125 10.078125l0 26.40625q0 0.796875 -0.796875 0.796875l-4.09375 0q-0.796875 0 -0.796875 -0.796875l0 -25.28125q0 -4.40625 -2.6875 -7.203125q-2.671875 -2.796875 -6.90625 -2.796875q-4.40625 0 -7.125 2.71875q-2.71875 2.71875 -2.71875 7.125l0 25.4375q0 0.796875 -0.796875 0.796875l-4.078125 0q-0.796875 0 -0.796875 -0.796875l0 -38.890625q0 -0.796875 0.796875 -0.796875l4.078125 0q0.796875 0 0.796875 0.796875l0 3.453125q0 0.15625 0.109375 0.234375q0.125 0.078125 0.21875 -0.078125q3.515625 -4.96875 10.796875 -4.96875zm51.276245 1.359375q0 -0.796875 0.796875 -0.796875l4.078125 0q0.8125 0 0.8125 0.796875l0 38.328125q0 8.953125 -5.171875 13.109375q-5.15625 4.171875 -14.1875 4.171875q-1.84375 0 -2.8125 -0.078125q-0.796875 -0.078125 -0.796875 -0.890625l0.15625 -3.671875q0 -0.40625 0.234375 -0.609375q0.25 -0.1875 0.578125 -0.109375l2.15625 0.078125q7.4375 0 10.796875 -2.921875q3.359375 -2.921875 3.359375 -9.234375l0 -2.96875q0 -0.15625 -0.125 -0.1875q-0.109375 -0.046875 -0.28125 0.109375q-3.671875 4.796875 -10.46875 4.796875q-5.203125 0 -9.25 -2.796875q-4.03125 -2.796875 -5.390625 -7.921875q-0.96875 -3.28125 -0.96875 -9.75q0 -3.53125 0.203125 -5.921875q0.203125 -2.40625 0.84375 -4.328125q1.4375 -4.796875 5.1875 -7.71875q3.765625 -2.921875 9.046875 -2.921875q7.125 0 10.796875 4.71875q0.171875 0.171875 0.28125 0.09375q0.125 -0.09375 0.125 -0.25l0 -3.125zm-0.40625 27.453125q0.25 -1.203125 0.328125 -2.953125q0.078125 -1.765625 0.078125 -5.125q0 -4.09375 -0.078125 -5.484375q-0.078125 -1.40625 -0.40625 -2.609375q-0.640625 -3.359375 -3.15625 -5.546875q-2.515625 -2.203125 -6.359375 -2.203125q-3.765625 0 -6.359375 2.15625q-2.59375 2.15625 -3.640625 5.59375q-0.796875 2.5625 -0.796875 8.0q0 5.84375 0.796875 8.09375q0.796875 3.359375 3.46875 5.5625q2.6875 2.1875 6.53125 2.1875q3.921875 0 6.4375 -2.15625q2.515625 -2.15625 3.15625 -5.515625z" fill-rule="nonzero"/><path fill="#ffffff" d="m425.52176 248.97018q-5.609375 0 -9.84375 -2.203125q-4.234375 -2.203125 -6.59375 -6.234375q-2.359375 -4.046875 -2.359375 -9.328125l0 -22.0q0 -5.1875 2.359375 -9.1875q2.359375 -4.0 6.59375 -6.203125q4.234375 -2.203125 9.84375 -2.203125q5.59375 0 9.828125 2.171875q4.25 2.15625 6.609375 6.078125q2.359375 3.90625 2.359375 9.03125q0 0.40625 -0.25 0.640625q-0.234375 0.234375 -0.546875 0.234375l-4.078125 0.25q-0.796875 0 -0.796875 -0.71875l0 -0.25q0 -5.671875 -3.609375 -9.078125q-3.59375 -3.40625 -9.515625 -3.40625q-5.921875 0 -9.53125 3.453125q-3.59375 3.4375 -3.59375 9.03125l0 22.40625q0 5.59375 3.59375 9.046875q3.609375 3.4375 9.53125 3.4375q5.921875 0 9.515625 -3.40625q3.609375 -3.40625 3.609375 -9.078125l0 -0.15625q0 -0.734375 0.796875 -0.734375l4.078125 0.25q0.796875 0 0.796875 0.71875q0 5.203125 -2.359375 9.171875q-2.359375 3.953125 -6.609375 6.109375q-4.234375 2.15625 -9.828125 2.15625zm31.200562 -0.71875q-0.796875 0 -0.796875 -0.796875l0 -54.40625q0 -0.796875 0.796875 -0.796875l4.078125 0q0.796875 0 0.796875 0.796875l0 54.40625q0 0.796875 -0.796875 0.796875l-4.078125 0zm42.07187 -39.6875q0 -0.796875 0.8125 -0.796875l4.078125 0q0.796875 0 0.796875 0.796875l0 38.890625q0 0.796875 -0.796875 0.796875l-4.078125 0q-0.8125 0 -0.8125 -0.796875l0 -3.4375q0 -0.171875 -0.15625 -0.25q-0.15625 -0.078125 -0.234375 0.078125q-3.359375 4.96875 -10.640625 4.96875q-3.84375 0 -7.09375 -1.5625q-3.234375 -1.5625 -5.109375 -4.515625q-1.875 -2.96875 -1.875 -7.125l0 -27.046875q0 -0.796875 0.796875 -0.796875l4.078125 0q0.796875 0 0.796875 0.796875l0 25.375q0 4.546875 2.5625 7.234375q2.5625 2.671875 6.953125 2.671875q4.5625 0 7.234375 -2.71875q2.6875 -2.71875 2.6875 -7.1875l0 -25.375zm49.52057 9.53125q0.96875 3.59375 0.96875 9.921875q0 6.546875 -1.125 10.15625q-1.515625 4.953125 -5.28125 7.84375q-3.765625 2.875 -9.359375 2.875q-3.203125 0 -5.84375 -1.28125q-2.640625 -1.28125 -4.390625 -3.671875q-0.078125 -0.171875 -0.25 -0.125q-0.15625 0.03125 -0.15625 0.203125l0 3.4375q0 0.796875 -0.796875 0.796875l-4.078125 0q-0.796875 0 -0.796875 -0.796875l0 -54.40625q0 -0.796875 0.796875 -0.796875l4.078125 0q0.796875 0 0.796875 0.796875l0 18.890625q0 0.15625 0.109375 0.203125q0.125 0.03125 0.296875 -0.125q1.75 -2.328125 4.390625 -3.609375q2.640625 -1.28125 5.84375 -1.28125q5.6875 0 9.515625 2.921875q3.84375 2.921875 5.28125 8.046875zm-6.15625 19.59375q0.796875 -1.671875 1.109375 -3.796875q0.328125 -2.125 0.328125 -5.875q0 -3.921875 -0.4375 -6.125q-0.4375 -2.203125 -1.40625 -3.953125q-1.03125 -2.640625 -3.359375 -4.234375q-2.3125 -1.609375 -5.515625 -1.609375q-3.03125 0 -5.234375 1.640625q-2.203125 1.640625 -3.15625 4.359375q-0.8125 1.671875 -1.171875 3.84375q-0.359375 2.15625 -0.359375 6.078125q0 3.828125 0.359375 5.953125q0.359375 2.125 1.078125 3.796875q1.046875 2.796875 3.203125 4.484375q2.15625 1.6875 5.359375 1.6875q3.359375 0 5.796875 -1.6875q2.453125 -1.6875 3.40625 -4.5625z" fill-rule="nonzero"/><path fill="#000000" fill-opacity="0.0" d="m-21.072178 -98.74278l510.77164 0l0 407.24408l-510.77164 0z" fill-rule="evenodd"/><path fill="#ffffff" d="m52.568447 217.4572l0 -8.0l31.999996 -5.4375l0 -186.5625l-62.406246 0l-13.437501 47.046875l-6.3906245 0l0 -58.25l183.67188 0l0 58.25l-6.390625 0l-13.453125 -47.046875l-62.390633 0l0 186.5625l32.000008 5.4375l0 8.0l-83.203125 0zm162.55807 55.35939q-4.15625 0 -7.359375 -1.921875q-3.203125 -1.921875 -3.203125 -7.03125q0 -0.640625 0.796875 -4.0q0.8125 -3.359375 2.09375 -10.718765l1.90625 0q5.453125 1.59375 8.8125 2.234375q3.359375 0.640625 7.515625 0.640625q6.71875 0 11.828125 -3.84375q5.125 -3.84375 8.0 -14.71875q2.890625 -10.875 2.890625 -32.3125l0 -181.45312l-25.59375 -5.4375l0 -7.9999995l70.390625 0l0 7.9999995l-25.59375 5.4375l0 130.5625q0 39.6875 -4.171875 64.328125q-4.15625 24.640625 -16.3125 37.4375q-8.640625 9.281265 -13.609375 13.750015q-4.953125 4.484375 -8.796875 5.765625q-3.828125 1.28125 -9.59375 1.28125z" fill-rule="nonzero"/><path fill="#000000" fill-opacity="0.0" d="m374.13123 67.44095l272.28345 0.8503876" fill-rule="evenodd"/><path stroke="#8a55d2" stroke-width="8.0" stroke-linejoin="round" stroke-linecap="butt" d="m374.13123 67.44095l272.28345 0.8503876" fill-rule="evenodd"/><path fill="#000000" fill-opacity="0.0" d="m523.6063 165.29659l152.25195 -0.03149414" fill-rule="evenodd"/><path stroke="#8a55d2" stroke-width="8.0" stroke-linejoin="round" stroke-linecap="butt" d="m523.6063 165.29659l152.25195 -0.03149414" fill-rule="evenodd"/><path fill="#000000" fill-opacity="0.0" d="m408.70734 262.27036l142.5827 0.4724121" fill-rule="evenodd"/><path stroke="#8a55d2" stroke-width="8.0" stroke-linejoin="round" stroke-linecap="butt" d="m408.70734 262.27036l142.5827 0.4724121" fill-rule="evenodd"/><path fill="#000000" fill-opacity="0.0" d="m344.69553 164.77428l143.43307 0.47244263" fill-rule="evenodd"/><path stroke="#8a55d2" stroke-width="8.0" stroke-linejoin="round" stroke-linecap="butt" d="m344.69553 164.77428l143.43307 0.47244263" fill-rule="evenodd"/></g></svg>